# This file uses centimeters as units for non-parametric coordinates.

v 0.531418 -0.290936 0.476482
v -0.686044 -0.773565 -0.679479
v -0.272406 0.740447 -0.614195
v 0.305756 -1.145429 -0.601646
v 1.226524 -0.639746 -0.063457
v 0.639117 0.544669 -0.115348
v -0.511086 0.309375 -0.591701
v -0.084171 -0.249510 -0.819286
v 0.580241 -0.618074 -0.555022
v -0.111596 -1.016649 -0.794714
v -0.588918 -0.849655 -0.302915
v 0.735307 -0.671619 -0.343107
v 0.803759 -0.408198 0.342620
v -0.573989 0.208991 0.284840
v -0.684816 -0.667755 0.037242
v 0.023917 -0.674365 0.436812
v 0.346782 -0.751555 0.499595
v 0.552597 -0.675082 0.468672
v -0.449128 -0.306766 0.523893
v 0.007952 1.253849 -0.001962
v 0.379285 0.569868 -0.511298
v -0.608993 0.823073 -0.132649
v -0.540074 0.757298 -0.464075
v 0.518538 0.003909 -0.573919
v 0.186076 -0.458818 -0.793298
v 0.543231 -0.349868 -0.567451
v -0.535408 -0.632891 -0.595219
v -0.567836 -0.887054 -0.147675
v -0.439175 -0.696591 0.121213
v 0.999865 -0.715300 -0.239921
v 0.734562 -1.011472 -0.066055
v 0.040367 -1.121735 -0.022450
v 0.957791 -0.563179 0.116215
v 1.041292 -0.073343 0.102269
v -0.545935 -0.224612 -0.427595
v -0.350562 -0.494612 0.400975
v -0.512220 0.857797 0.156987
v -0.292138 1.235590 -0.306512
v -0.710041 -0.883360 -0.484438
v 0.733733 0.430148 0.322388
v 0.242648 0.153888 0.557385
v -0.758960 0.307426 -0.327844
v -0.178288 0.245468 -0.716740
v 0.154741 0.133221 -0.670069
v 0.349536 0.064343 -0.653309
vt 0.375000 0.000000
vt 0.500000 0.000000
vt 0.562500 0.000000
vt 0.593750 0.000000
vt 0.375000 0.062500
vt 0.375000 0.343750
vt 0.500000 0.375000
vt 0.625000 0.437500
vt 0.625000 0.500000
vt 0.437500 0.437500
vt 0.375000 0.406250
vt 0.375000 0.437500
vt 0.375000 0.593750
vt 0.375000 0.500000
vt 0.625000 0.625000
vt 0.531250 0.687500
vt 0.625000 0.687500
vt 0.437500 0.593750
vt 0.375000 0.656250
vt 0.375000 0.718750
vt 0.375000 0.750000
vt 0.468750 0.750000
vt 0.375000 0.781250
vt 0.375000 0.812500
vt 0.531250 0.781250
vt 0.375000 0.843750
vt 0.625000 0.750000
vt 0.625000 0.812500
vt 0.625000 0.843750
vt 0.500000 0.875000
vt 0.593750 0.875000
vt 0.625000 0.875000
vt 0.625000 0.906250
vt 0.625000 0.968750
vt 0.625000 1.000000
vt 0.593750 1.000000
vt 0.562500 1.000000
vt 0.375000 0.906250
vt 0.500000 1.000000
vt 0.375000 1.000000
vt 0.625000 0.000000
vt 0.656250 0.000000
vt 0.718750 0.000000
vt 0.750000 0.000000
vt 0.781250 0.000000
vt 0.812500 0.000000
vt 0.875000 0.000000
vt 0.875000 0.062500
vt 0.718750 0.125000
vt 0.875000 0.125000
vt 0.875000 0.250000
vt 0.687500 0.218750
vt 0.562500 0.187500
vt 0.125000 0.000000
vt 0.156250 0.000000
vt 0.187500 0.000000
vt 0.218750 0.000000
vt 0.281250 0.000000
vt 0.125000 0.031250
vt 0.250000 0.031250
vt 0.312500 0.156250
vt 0.187500 0.156250
vt 0.125000 0.093750
vt 0.218750 0.250000
vt 0.187500 0.250000
vt 0.125000 0.156250
vt 0.125000 0.250000
vt 0.406250 0.546875
vt 0.531250 0.546875
vt 0.578125 0.593750
vn -0.370395 -0.636831 0.676205
vn -0.370395 -0.636831 0.676206
vn -0.370395 -0.636831 0.676206
vn -0.284365 -0.551678 0.784084
vn -0.284365 -0.551678 0.784084
vn -0.284365 -0.551678 0.784084
vn 0.152804 -0.011667 0.988188
vn 0.152804 -0.011667 0.988188
vn 0.152804 -0.011667 0.988188
vn 0.047773 0.030946 0.998379
vn 0.047773 0.030946 0.998379
vn 0.047773 0.030946 0.998379
vn 0.050139 -0.147116 0.987848
vn 0.050139 -0.147116 0.987848
vn 0.050139 -0.147116 0.987848
vn -0.232092 0.280831 0.931272
vn -0.232092 0.280831 0.931272
vn -0.232092 0.280831 0.931272
vn -0.062828 0.441696 0.894962
vn -0.062828 0.441696 0.894962
vn -0.062828 0.441696 0.894962
vn -0.586686 0.741412 0.325741
vn -0.586686 0.741412 0.325741
vn -0.586686 0.741412 0.325741
vn -0.586686 0.741412 0.325741
vn 0.656207 0.646292 -0.389487
vn 0.656207 0.646292 -0.389487
vn 0.656207 0.646292 -0.389487
vn 0.505013 0.674859 -0.538077
vn 0.505013 0.674859 -0.538077
vn 0.505013 0.674859 -0.538077
vn 0.263841 0.516661 -0.814524
vn 0.263841 0.516661 -0.814524
vn 0.263841 0.516661 -0.814524
vn -0.815165 0.511872 -0.271096
vn -0.815165 0.511872 -0.271096
vn -0.815165 0.511872 -0.271096
vn 0.212677 0.236836 -0.947986
vn 0.212677 0.236836 -0.947986
vn 0.212677 0.236836 -0.947986
vn 0.451239 0.096407 -0.887181
vn 0.451239 0.096407 -0.887181
vn 0.451239 0.096407 -0.887181
vn 0.213269 0.209895 -0.954181
vn 0.213269 0.209895 -0.954181
vn 0.213269 0.209895 -0.954181
vn 0.213269 0.209895 -0.954181
vn 0.529649 0.021468 -0.847945
vn 0.529650 0.021468 -0.847945
vn 0.529649 0.021468 -0.847945
vn 0.558148 -0.131393 -0.819272
vn 0.558149 -0.131393 -0.819272
vn 0.558148 -0.131393 -0.819272
vn 0.200452 -0.017732 -0.979543
vn 0.200452 -0.017732 -0.979543
vn 0.200452 -0.017732 -0.979543
vn -0.515931 0.110796 -0.849435
vn -0.515931 0.110796 -0.849435
vn -0.515931 0.110796 -0.849435
vn -0.515931 0.110796 -0.849435
vn 0.408285 -0.043802 -0.911803
vn 0.408285 -0.043802 -0.911803
vn 0.408285 -0.043802 -0.911803
vn -0.131627 -0.287730 -0.948623
vn -0.131627 -0.287730 -0.948623
vn -0.131627 -0.287730 -0.948623
vn 0.031722 0.488369 -0.872060
vn 0.031722 0.488369 -0.872061
vn 0.031722 0.488369 -0.872061
vn -0.325227 -0.916316 -0.233649
vn -0.325227 -0.916316 -0.233649
vn -0.325227 -0.916316 -0.233649
vn -0.325227 -0.916316 -0.233649
vn -0.204066 -0.929022 0.308667
vn -0.204066 -0.929022 0.308667
vn -0.204066 -0.929022 0.308667
vn -0.360486 -0.916786 -0.171910
vn -0.360486 -0.916786 -0.171910
vn -0.360486 -0.916786 -0.171910
vn -0.682267 -0.673234 -0.285074
vn -0.682267 -0.673234 -0.285074
vn -0.682267 -0.673234 -0.285074
vn 0.047834 -0.825743 0.562014
vn 0.047834 -0.825743 0.562014
vn 0.047834 -0.825743 0.562014
vn 0.771164 -0.354642 -0.528711
vn 0.771164 -0.354642 -0.528711
vn 0.771164 -0.354642 -0.528711
vn 0.642944 -0.484794 -0.592957
vn 0.642944 -0.484794 -0.592957
vn 0.642944 -0.484794 -0.592957
vn 0.194092 -0.620098 -0.760136
vn 0.194092 -0.620098 -0.760136
vn 0.194092 -0.620098 -0.760136
vn 0.554140 -0.730591 -0.398957
vn 0.554140 -0.730591 -0.398957
vn 0.554139 -0.730591 -0.398957
vn 0.162858 -0.979959 0.114711
vn 0.162858 -0.979959 0.114711
vn 0.162858 -0.979959 0.114711
vn 0.376419 -0.503608 0.777617
vn 0.376419 -0.503608 0.777617
vn 0.376419 -0.503608 0.777617
vn 0.648194 -0.476640 0.593850
vn 0.648194 -0.476640 0.593850
vn 0.648194 -0.476640 0.593850
vn 0.648194 -0.476640 0.593850
vn 0.214354 -0.823457 0.525330
vn 0.214354 -0.823457 0.525330
vn 0.214354 -0.823457 0.525330
vn 0.214354 -0.823457 0.525330
vn 0.443264 0.006214 0.896369
vn 0.443264 0.006214 0.896369
vn 0.443264 0.006214 0.896369
vn -0.293613 -0.689983 0.661600
vn -0.293613 -0.689983 0.661600
vn -0.293613 -0.689983 0.661600
vn -0.411465 -0.672128 0.615582
vn -0.411465 -0.672128 0.615582
vn -0.411465 -0.672128 0.615582
vn -0.382054 -0.668782 0.637781
vn -0.382054 -0.668782 0.637781
vn -0.382054 -0.668782 0.637781
vn 0.508233 0.234320 0.828730
vn 0.508233 0.234320 0.828730
vn 0.508233 0.234320 0.828730
vn 0.782501 -0.115973 0.611753
vn 0.782501 -0.115973 0.611753
vn 0.782501 -0.115973 0.611753
vn 0.540975 -0.068353 0.838257
vn 0.540975 -0.068353 0.838257
vn 0.540975 -0.068353 0.838257
vn 0.433157 0.402044 -0.806682
vn 0.433157 0.402044 -0.806682
vn 0.433157 0.402044 -0.806682
vn 0.433157 0.402044 -0.806682
vn 0.809535 0.022677 -0.586634
vn 0.809535 0.022677 -0.586634
vn 0.809535 0.022677 -0.586634
vn 0.783854 0.079629 -0.615818
vn 0.783854 0.079629 -0.615818
vn 0.783854 0.079629 -0.615818
vn 0.792811 0.044225 -0.607861
vn 0.792811 0.044225 -0.607861
vn 0.792811 0.044225 -0.607861
vn 0.786375 0.288067 -0.546472
vn 0.786375 0.288067 -0.546472
vn 0.786375 0.288067 -0.546472
vn 0.786375 0.288067 -0.546472
vn 0.589682 0.007136 0.807604
vn 0.589682 0.007136 0.807604
vn 0.589682 0.007136 0.807604
vn 0.390035 0.086471 0.916731
vn 0.390035 0.086471 0.916731
vn 0.390035 0.086471 0.916731
vn 0.844194 0.534336 -0.042679
vn 0.844194 0.534336 -0.042679
vn 0.844194 0.534336 -0.042679
vn 0.747897 0.663707 0.011982
vn 0.747897 0.663707 0.011982
vn 0.747897 0.663707 0.011982
vn -0.709674 0.632270 0.310802
vn -0.709674 0.632270 0.310802
vn -0.709674 0.632270 0.310802
vn -0.709674 0.632270 0.310802
vn -0.987510 0.037379 -0.153058
vn -0.987510 0.037379 -0.153058
vn -0.987510 0.037379 -0.153058
vn -0.880432 -0.474143 0.005336
vn -0.880432 -0.474143 0.005336
vn -0.880432 -0.474143 0.005336
vn -0.302420 -0.703566 0.643068
vn -0.302420 -0.703566 0.643068
vn -0.302420 -0.703566 0.643068
vn -0.995926 0.054098 -0.072143
vn -0.995926 0.054098 -0.072143
vn -0.995926 0.054098 -0.072143
vn -0.902265 0.218953 -0.371453
vn -0.902265 0.218953 -0.371453
vn -0.902265 0.218953 -0.371453
vn -0.296953 -0.727093 0.618995
vn -0.296953 -0.727093 0.618995
vn -0.296953 -0.727093 0.618995
vn -0.390550 -0.638730 0.662944
vn -0.390550 -0.638730 0.662944
vn -0.390550 -0.638730 0.662944
vn -0.896496 -0.011753 0.442896
vn -0.896496 -0.011753 0.442896
vn -0.896496 -0.011753 0.442896
vn -0.606185 0.208932 0.767390
vn -0.606185 0.208932 0.767390
vn -0.606185 0.208932 0.767390
vn -0.943170 0.148388 0.297341
vn -0.943170 0.148388 0.297341
vn -0.943170 0.148388 0.297341
vn -0.549754 -0.081403 -0.831351
vn -0.549754 -0.081403 -0.831351
vn -0.549754 -0.081403 -0.831351
vn -0.549754 -0.081403 -0.831351
vn -0.718740 -0.160963 -0.676390
vn -0.718740 -0.160963 -0.676390
vn -0.718740 -0.160963 -0.676390
vn -0.721551 0.146133 -0.676764
vn -0.721551 0.146133 -0.676764
vn -0.721551 0.146133 -0.676764
vn -0.894427 -0.396799 0.206279
vn -0.894427 -0.396799 0.206279
vn -0.894427 -0.396799 0.206279
vn -0.964315 0.232539 0.126580
vn -0.964315 0.232539 0.126580
vn -0.964315 0.232539 0.126580
vn -0.964315 0.232539 0.126580
vn -0.467529 0.214113 -0.857655
vn -0.467529 0.214113 -0.857655
vn -0.467529 0.214113 -0.857655
vn -0.409140 0.469783 -0.782245
vn -0.409140 0.469783 -0.782245
vn -0.409140 0.469783 -0.782245
vn 0.149182 0.473309 0.868172
vn 0.149182 0.473309 0.868172
vn 0.149182 0.473309 0.868172
vn 0.211909 0.236323 -0.948286
vn 0.211909 0.236323 -0.948286
vn 0.211909 0.236323 -0.948286
vn 0.211909 0.236323 -0.948286
vn 0.172671 0.256955 -0.950873
vn 0.172671 0.256955 -0.950873
vn 0.172671 0.256955 -0.950873
vn 0.476535 0.211662 -0.853295
vn 0.476535 0.211662 -0.853296
vn 0.476535 0.211662 -0.853295
vn -0.326357 0.131859 -0.936004
vn -0.326357 0.131859 -0.936004
vn -0.326357 0.131859 -0.936004
s off
f 36/1/1 16/2/2 19/5/3
f 16/2/4 17/3/5 19/5/6
f 17/3/7 18/4/8 1/41/9
f 17/3/10 1/41/11 19/5/12
f 19/5/13 1/41/14 41/53/15
f 19/5/16 41/53/17 37/6/18
f 37/6/19 41/53/20 20/7/21
f 37/6/22 20/7/23 38/10/24 22/64/25
f 20/7/26 6/8/27 21/9/28
f 20/7/29 21/9/30 38/10/31
f 38/10/32 21/9/33 3/14/34
f 22/11/35 38/10/36 23/12/37
f 43/68/38 44/69/39 8/18/40
f 45/70/41 24/15/42 25/16/43
f 8/18/44 44/69/45 45/70/46 25/16/47
f 25/16/48 24/15/49 26/17/50
f 25/16/51 26/17/52 4/25/53
f 4/25/54 26/17/55 9/27/56
f 35/19/57 8/18/58 10/22/59 27/20/60
f 10/22/61 8/18/62 4/25/63
f 8/18/64 25/16/65 4/25/66
f 27/20/67 10/22/68 2/21/69
f 2/21/70 10/22/71 4/25/72 39/23/73
f 39/23/74 4/25/75 11/24/76
f 11/24/77 4/25/78 28/26/79
f 4/25/80 32/30/81 29/38/82
f 28/26/83 4/25/84 29/38/85
f 4/25/86 9/27/87 31/31/88
f 9/27/89 12/28/90 31/31/91
f 31/31/92 12/28/93 30/29/94
f 31/31/95 30/29/96 5/32/97
f 4/25/98 31/31/99 32/30/100
f 31/31/101 5/32/102 33/33/103
f 31/31/104 33/33/105 13/34/106 18/36/107
f 32/30/108 31/31/109 18/36/110 17/37/111
f 18/36/112 13/34/113 1/35/114
f 32/30/115 17/37/116 16/39/117
f 29/38/118 32/30/119 36/40/120
f 32/30/121 16/39/122 36/40/123
f 1/41/124 13/42/125 34/49/126
f 13/42/127 33/43/128 34/49/129
f 33/43/130 5/44/131 34/49/132
f 5/44/133 30/45/134 12/46/135 34/49/136
f 12/46/137 9/47/138 34/49/139
f 9/47/140 26/48/141 34/49/142
f 34/49/143 26/48/144 24/50/145
f 34/49/146 24/50/147 21/51/148 6/8/149
f 1/41/150 34/49/151 40/52/152
f 1/41/153 40/52/154 41/53/155
f 34/49/156 6/8/157 40/52/158
f 20/7/159 40/52/160 6/8/161
f 2/54/162 39/55/163 11/56/164 27/59/165
f 27/59/166 11/56/167 35/63/168
f 11/56/169 28/57/170 15/60/171
f 28/57/172 29/58/173 15/60/174
f 11/56/175 14/61/176 35/63/177
f 11/56/178 15/60/179 14/61/180
f 29/58/181 36/1/182 15/60/183
f 36/1/184 19/5/185 15/60/186
f 15/60/187 19/5/188 14/61/189
f 14/61/190 19/5/191 37/6/192
f 22/64/193 14/61/194 37/6/195
f 35/63/196 7/13/197 43/68/198 8/18/199
f 35/63/200 42/62/201 7/66/202
f 7/66/203 42/62/204 23/65/205
f 35/63/206 14/61/207 42/62/208
f 42/62/209 14/61/210 22/64/211 23/65/212
f 7/66/213 23/65/214 3/67/215
f 3/67/216 23/12/217 38/10/218
f 41/53/219 40/52/220 20/7/221
f 3/14/222 21/9/223 44/69/224 43/68/225
f 45/70/226 44/69/227 21/9/228
f 21/9/229 24/15/230 45/70/231
f 43/68/232 7/13/233 3/14/234
